<svg width="221" height="186" viewBox="0 0 221 186" fill="none" xmlns="http://www.w3.org/2000/svg">
<g opacity="0.3">
<path opacity="0.3" d="M216.335 98.6566C199.443 145.618 163.864 190.492 104.514 185.639C45.1642 180.786 7.1895 106.413 1.49252 81.0726C-11.1145 25.7957 58.6005 -3.24881 118.058 0.289151C184.978 4.2807 235.667 44.9219 216.335 98.6566Z" fill="#48772C"/>
</g>
<path d="M174.052 103.898C173.732 117.585 168.764 130.77 159.944 141.335C156.6 145.354 152.763 148.948 148.521 152.033C138.297 159.47 126 163.616 113.304 163.905C106.043 164.067 98.8093 162.978 91.9274 160.686L61.4929 172.743C60.8813 172.987 60.2139 173.06 59.5631 172.955C58.9124 172.85 58.3033 172.57 57.802 172.148C57.3007 171.725 56.9263 171.174 56.7197 170.556C56.513 169.938 56.4819 169.275 56.6298 168.641C58.3132 161.478 61.0253 149.856 63.0961 140.622C56.893 132.891 52.6662 123.799 50.7729 114.114C48.8796 104.429 49.3755 94.4365 52.2186 84.9809C55.0617 75.5253 60.1685 66.8844 67.1074 59.7886C74.0463 52.6928 82.6133 47.3506 92.0844 44.2136C101.555 41.0766 111.652 40.237 121.521 41.7656C131.39 43.2943 140.742 47.1463 148.785 52.9961C156.828 58.846 163.327 66.5217 167.732 75.3746C172.137 84.2275 174.318 93.9973 174.092 103.858L174.052 103.898Z" fill="#537536"/>
<g style="mix-blend-mode:multiply" opacity="0.15">
<path d="M135.442 63.784C131.729 59.1257 129.838 53.3026 130.117 47.3805C130.396 41.4585 132.825 35.8337 136.961 31.5357C141.096 27.2376 146.661 24.5539 152.637 23.9758C158.613 23.3976 164.599 24.9637 169.501 28.3874C174.403 31.811 177.892 36.8632 179.33 42.6191C180.768 48.3751 180.058 54.4498 177.331 59.7313C174.603 65.0128 170.04 69.1478 164.478 71.3794C158.915 73.611 152.724 73.7899 147.039 71.8834L134.801 76.7379C134.555 76.8356 134.286 76.865 134.024 76.8229C133.762 76.7808 133.517 76.6688 133.315 76.4991C133.113 76.3293 132.961 76.1082 132.877 75.8597C132.793 75.6112 132.779 75.3446 132.837 75.0889C133.519 72.1737 134.561 67.5039 135.442 63.784Z" fill="#2251A8"/>
</g>
<path d="M132.57 60.1956C128.819 55.5294 126.896 49.6848 127.155 43.7327C127.413 37.7807 129.835 32.1199 133.977 27.7878C138.119 23.4557 143.703 20.7424 149.707 20.1451C155.71 19.5479 161.73 21.1067 166.664 24.5359C171.598 27.9651 175.116 33.035 176.571 38.8165C178.027 44.598 177.324 50.7039 174.591 56.0152C171.858 61.3265 167.278 65.4874 161.69 67.7355C156.102 69.9835 149.881 70.1682 144.167 68.2555L131.889 73.1099C131.643 73.2093 131.375 73.2398 131.113 73.1982C130.85 73.1565 130.605 73.0443 130.403 72.8738C130.202 72.7034 130.052 72.4813 129.97 72.232C129.888 71.9827 129.877 71.716 129.938 71.461C130.646 68.5853 131.729 63.9683 132.57 60.1956Z" fill="#EAB65A"/>
<path d="M148.576 37.9019H137.634C136.697 37.9019 135.937 38.6519 135.937 39.5772C135.937 40.5024 136.697 41.2525 137.634 41.2525H148.576C149.513 41.2525 150.272 40.5024 150.272 39.5772C150.272 38.6519 149.513 37.9019 148.576 37.9019Z" fill="#D79E46"/>
<path d="M144.192 44.9731H133.25C132.313 44.9731 131.554 45.7232 131.554 46.6484C131.554 47.5737 132.313 48.3237 133.25 48.3237H144.192C145.13 48.3237 145.889 47.5737 145.889 46.6484C145.889 45.7232 145.13 44.9731 144.192 44.9731Z" fill="#F9DCAA"/>
<path d="M168.789 44.9731H149.831C148.893 44.9731 148.134 45.7232 148.134 46.6484C148.134 47.5737 148.893 48.3237 149.831 48.3237H168.789C169.726 48.3237 170.485 47.5737 170.485 46.6484C170.485 45.7232 169.726 44.9731 168.789 44.9731Z" fill="#F9DCAA"/>
<path d="M166.329 51.2776H138.66C137.723 51.2776 136.963 52.0276 136.963 52.9529C136.963 53.8781 137.723 54.6282 138.66 54.6282H166.329C167.266 54.6282 168.026 53.8781 168.026 52.9529C168.026 52.0276 167.266 51.2776 166.329 51.2776Z" fill="#F9DCAA"/>
<path d="M160.213 60.9335H146.732C146.509 60.9335 146.289 60.8902 146.083 60.806C145.877 60.7218 145.69 60.5984 145.532 60.4428C145.375 60.2872 145.25 60.1025 145.165 59.8993C145.079 59.696 145.035 59.4782 145.035 59.2582C145.035 58.8139 145.214 58.3877 145.532 58.0736C145.851 57.7594 146.282 57.5829 146.732 57.5829H160.213C160.663 57.5829 161.094 57.7594 161.412 58.0736C161.731 58.3877 161.909 58.8139 161.909 59.2582C161.909 59.4782 161.865 59.696 161.78 59.8993C161.695 60.1025 161.57 60.2872 161.412 60.4428C161.255 60.5984 161.068 60.7218 160.862 60.806C160.656 60.8902 160.435 60.9335 160.213 60.9335Z" fill="#F9DCAA"/>
<path d="M179.853 27.5861C179.926 30.381 179.157 33.1344 177.644 35.4974C176.13 37.8603 173.94 39.7261 171.351 40.8584C168.762 41.9906 165.891 42.3382 163.102 41.857C160.312 41.3758 157.731 40.0876 155.684 38.1556C153.637 36.2237 152.217 33.7351 151.605 31.0054C150.993 28.2758 151.215 25.4281 152.244 22.8234C153.273 20.2188 155.062 17.9745 157.385 16.3753C159.708 14.7761 162.459 13.8939 165.29 13.8407C169.065 13.7628 172.718 15.1658 175.448 17.7423C178.177 20.3188 179.761 23.8586 179.853 27.5861Z" fill="#E4E4E4"/>
<path d="M159.357 21.3336C159.357 21.3336 159.918 18.6953 165.048 19.0251C170.179 19.3549 173.265 21.6634 173.131 27.362C172.998 33.0607 176.605 35.2768 173.131 35.7385C169.658 36.2002 158.315 37.9019 157.874 36.2662C157.433 34.6304 158.729 31.6756 158.235 28.4569C158.052 26.029 158.436 23.592 159.357 21.3336Z" fill="#494949"/>
<path d="M174.855 38.6395C172.486 40.6337 169.524 41.8116 166.416 41.9948C163.309 42.1781 160.226 41.3568 157.634 39.6553C157.89 38.6378 158.343 37.679 158.97 36.8323C159.775 35.7446 160.787 34.8217 161.949 34.1149L162.082 34.0357L162.203 33.9566L162.443 33.8247L162.55 33.7587H162.644L163.151 33.4949H163.298L163.525 33.3894C163.793 33.2575 164.073 33.1387 164.367 33.02H166.104H166.211H166.318H166.398H166.571H166.652H166.745H166.852H166.932L167.213 33.1124L167.467 33.1915L167.654 33.2575C167.948 33.363 168.255 33.4817 168.589 33.6268H168.696L169.003 33.7719C170.102 34.2676 171.135 34.8969 172.076 35.6451C173.209 36.4347 174.157 37.456 174.855 38.6395Z" fill="#537536"/>
<path d="M169.071 33.7995C168.645 34.2987 168.117 34.7041 167.522 34.9895C166.927 35.2749 166.278 35.4339 165.617 35.4563C164.956 35.4786 164.298 35.3639 163.685 35.1194C163.071 34.8749 162.517 34.5062 162.057 34.0369L162.484 33.7863C163.104 33.4368 163.747 33.1284 164.408 32.8629H166.145C166.785 33.0087 167.415 33.1983 168.029 33.4301L169.071 33.7995Z" fill="#F4C9AD"/>
<path d="M168.028 33.3906C167.198 33.8742 166.265 34.1616 165.303 34.2303C164.341 34.2989 163.376 34.147 162.484 33.7863C163.104 33.4368 163.746 33.1284 164.408 32.8629H166.144C166.784 32.9958 167.413 33.1721 168.028 33.3906Z" fill="#E8AA87"/>
<path d="M171.166 27.5069C171.212 28.2666 171.105 29.0276 170.852 29.7465C170.599 30.4654 170.205 31.128 169.692 31.6965C169.18 32.2649 168.559 32.7281 167.865 33.0594C167.171 33.3908 166.418 33.5839 165.649 33.6277C164.654 33.6376 163.675 33.3863 162.811 32.8996C161.947 32.4128 161.229 31.708 160.732 30.8575C160.166 29.9281 159.857 28.8682 159.837 27.7839C159.757 26.2527 160.293 24.7524 161.33 23.6105C162.366 22.4687 163.818 21.7781 165.368 21.6895C165.772 21.6776 166.175 21.713 166.57 21.795C167.876 22.0978 169.039 22.8263 169.873 23.8627C170.707 24.8992 171.163 26.1831 171.166 27.5069Z" fill="#F4C9AD"/>
<path d="M163.952 30.8706L167.279 30.6991C167.399 30.6991 167.48 30.831 167.439 30.9629C167.335 31.3669 167.11 31.7303 166.793 32.0057C166.476 32.281 166.082 32.4555 165.663 32.5063C165.249 32.5204 164.842 32.3985 164.506 32.1598C164.17 31.921 163.924 31.579 163.806 31.1872C163.784 31.1587 163.77 31.1249 163.766 31.0894C163.762 31.0539 163.768 31.018 163.783 30.9856C163.798 30.9531 163.822 30.9253 163.852 30.9051C163.882 30.8848 163.916 30.8729 163.952 30.8706Z" fill="white"/>
<path d="M168.764 35.4613C167.428 36.7804 165.664 35.4613 165.664 35.4613C166.932 35.31 168.102 34.7157 168.964 33.786H169.071L169.378 33.9311C169.525 34.2213 169.525 34.7094 168.764 35.4613Z" fill="white"/>
<path d="M165.662 35.4349C165.324 35.7059 164.919 35.882 164.489 35.9447C164.058 36.0073 163.619 35.9543 163.217 35.7911C163.017 35.7682 162.825 35.7066 162.649 35.6099C162.474 35.5132 162.32 35.3833 162.196 35.2276C162.072 35.072 161.98 34.8936 161.926 34.7028C161.872 34.512 161.856 34.3125 161.881 34.1158L162.014 34.0366C163.007 34.9412 164.31 35.4408 165.662 35.4349Z" fill="white"/>
<path d="M166.624 21.7551V23.7866C164.957 24.0776 163.448 24.9446 162.369 26.2327C161.29 27.5208 160.709 29.1459 160.732 30.8175C160.166 29.8882 159.857 28.8282 159.837 27.744C159.757 26.2128 160.293 24.7124 161.33 23.5706C162.366 22.4287 163.818 21.7381 165.368 21.6496C165.789 21.6334 166.211 21.6688 166.624 21.7551Z" fill="#E8AA87"/>
<path d="M159.798 29.7367C159.798 29.6312 160.946 25.0274 162.71 24.5525C164.474 24.0776 167.159 24.4734 167.64 23.8402C168.121 23.207 167.76 24.5789 169.577 26.0563C171.394 27.5338 171.875 26.9402 171.875 26.9402L170.806 23.1147C170.806 23.1147 167.239 21.3207 167.052 21.2943C166.302 21.0158 165.522 20.8254 164.727 20.7271C164.407 20.8458 162.536 21.1887 162.376 21.3207C162.216 21.4526 160.412 22.4551 160.399 22.5738C160.177 23.1596 159.994 23.7588 159.851 24.3679C159.851 24.7372 159.13 27.1908 159.236 27.3623C159.343 27.5338 159.798 29.7367 159.798 29.7367Z" fill="#494949"/>
<g style="mix-blend-mode:multiply" opacity="0.15">
<path d="M80.2507 79.9294C83.9943 75.2713 85.913 69.4374 85.6551 63.4963C85.3973 57.5553 82.9804 51.9048 78.8469 47.5799C74.7135 43.255 69.1403 40.5452 63.1483 39.9469C57.1562 39.3485 51.1464 40.9017 46.2197 44.322C41.293 47.7422 37.7792 52.8005 36.3219 58.5703C34.8646 64.3401 35.5614 70.4352 38.2847 75.739C41.008 81.0429 45.5754 85.2005 51.1503 87.4503C56.7253 89.7001 62.9345 89.8914 68.6407 87.9893L80.892 92.8437C81.1376 92.9431 81.4063 92.9736 81.6684 92.932C81.9305 92.8903 82.1758 92.7781 82.3775 92.6076C82.5791 92.4372 82.7292 92.2151 82.8113 91.9658C82.8934 91.7165 82.9042 91.4498 82.8426 91.1948C82.1746 88.3059 81.1191 83.6362 80.2507 79.9294Z" fill="#2251A8"/>
</g>
<path d="M82.3094 76.3537C86.0426 71.6968 87.9518 65.8679 87.6875 59.9345C87.4233 54.001 85.0032 48.3601 80.8705 44.0447C76.7378 39.7293 71.169 37.0281 65.1838 36.4357C59.1986 35.8434 53.1976 37.3996 48.2796 40.8193C43.3617 44.2391 39.8559 49.2935 38.4042 55.0571C36.9525 60.8207 37.6521 66.9078 40.3749 72.2037C43.0976 77.4995 47.6613 81.6498 53.2303 83.8946C58.7993 86.1393 65.0009 86.3282 70.6995 84.4268L82.9507 89.2812C83.1964 89.3806 83.465 89.4111 83.7271 89.3695C83.9892 89.3278 84.2346 89.2156 84.4362 89.0451C84.6379 88.8747 84.788 88.6526 84.87 88.4033C84.9521 88.154 84.9629 87.8873 84.9013 87.6323C84.2333 84.7434 83.1378 80.0737 82.3094 76.3537Z" fill="white"/>
<path d="M66.2922 57.4249H77.2342C78.1713 57.4249 78.9309 56.6749 78.9309 55.7496C78.9309 54.8244 78.1713 54.0743 77.2342 54.0743H66.2922C65.3551 54.0743 64.5955 54.8244 64.5955 55.7496C64.5955 56.6749 65.3551 57.4249 66.2922 57.4249Z" fill="#537536"/>
<path d="M70.6724 64.4951H81.6144C82.0644 64.4951 82.496 64.3186 82.8142 64.0044C83.1324 63.6903 83.3112 63.2641 83.3112 62.8198C83.3112 62.3755 83.1324 61.9494 82.8142 61.6352C82.496 61.321 82.0644 61.1445 81.6144 61.1445H70.6724C70.2224 61.1445 69.7909 61.321 69.4727 61.6352C69.1545 61.9494 68.9757 62.3755 68.9757 62.8198C68.9757 63.2641 69.1545 63.6903 69.4727 64.0044C69.7909 64.3186 70.2224 64.4951 70.6724 64.4951Z" fill="#E4E4E4"/>
<path d="M46.0752 64.4951H65.0867C65.5367 64.4951 65.9683 64.3186 66.2865 64.0044C66.6047 63.6903 66.7834 63.2641 66.7834 62.8198C66.7834 62.3755 66.6047 61.9494 66.2865 61.6352C65.9683 61.321 65.5367 61.1445 65.0867 61.1445H46.0752C45.6252 61.1445 45.1936 61.321 44.8754 61.6352C44.5572 61.9494 44.3784 62.3755 44.3784 62.8198C44.3784 63.2641 44.5572 63.6903 44.8754 64.0044C45.1936 64.3186 45.6252 64.4951 46.0752 64.4951Z" fill="#E4E4E4"/>
<path d="M48.5345 70.8005H76.2034C77.1405 70.8005 77.9001 70.0505 77.9001 69.1252C77.9001 68.2 77.1405 67.4499 76.2034 67.4499H48.5345C47.5974 67.4499 46.8378 68.2 46.8378 69.1252C46.8378 70.0505 47.5974 70.8005 48.5345 70.8005Z" fill="#E4E4E4"/>
<path d="M54.6521 77.1605H68.1325C68.586 77.1605 69.021 76.9826 69.3417 76.6659C69.6624 76.3493 69.8426 75.9198 69.8426 75.472C69.8426 75.2509 69.7982 75.0319 69.7121 74.8278C69.626 74.6237 69.4999 74.4384 69.3409 74.2827C69.1819 74.1269 68.9933 74.0038 68.7859 73.9204C68.5785 73.837 68.3564 73.7949 68.1325 73.7967H54.6521C54.2021 73.7967 53.7705 73.9732 53.4523 74.2874C53.1341 74.6015 52.9553 75.0277 52.9553 75.472C52.9536 75.6931 52.9961 75.9124 53.0806 76.1171C53.1651 76.3219 53.2898 76.5082 53.4475 76.6651C53.6053 76.8221 53.7929 76.9467 53.9996 77.0317C54.2064 77.1167 54.4281 77.1605 54.6521 77.1605Z" fill="#E4E4E4"/>
<path d="M64.632 43.02C64.6636 45.7995 63.8594 48.5257 62.3212 50.8537C60.783 53.1818 58.58 55.007 55.9908 56.0983C53.4016 57.1897 50.5428 57.4981 47.776 56.9846C45.0092 56.4712 42.4589 55.1589 40.4478 53.2138C38.4367 51.2687 37.0551 48.7783 36.478 46.0577C35.9009 43.3371 36.1541 40.5086 37.2056 37.9301C38.2572 35.3517 40.0598 33.1392 42.3853 31.5726C44.7108 30.006 47.4548 29.1558 50.2699 29.1295C52.1381 29.1051 53.9928 29.4456 55.7272 30.1315C57.4617 30.8173 59.0417 31.8349 60.3765 33.1258C61.7112 34.4167 62.7743 35.9554 63.5046 37.6534C64.235 39.3515 64.6181 41.1753 64.632 43.02Z" fill="#537536"/>
<path d="M58.4065 54.7341C56.045 56.3283 53.251 57.1813 50.3904 57.1813C47.5297 57.1813 44.7357 56.3283 42.3743 54.7341C43.3375 52.6359 45.0847 50.9864 47.2507 50.1303H47.3576H47.4779H47.6248H47.7584H47.8386H47.9455L48.1325 50.0643L48.707 49.8533H48.8807H51.5527H51.7264L51.9936 49.972L52.2608 50.0907H52.3276H52.4612L52.6082 50.1699L52.7418 50.2358H52.8086L53.1025 50.3941L53.2361 50.4733C55.2844 51.4579 57.059 52.9203 58.4065 54.7341Z" fill="#EAB65A"/>
<path d="M53.1958 50.2761C50.31 53.6794 47.8517 50.9884 47.2906 50.1837L47.5177 50.0914C47.9886 49.882 48.4702 49.6971 48.9606 49.5374H51.6326C51.6326 49.5374 52.2339 49.7748 53.0889 50.2233L53.1958 50.2761Z" fill="#F4C9AD"/>
<path d="M53.0619 50.1969C49.8554 52.0305 47.9583 50.5135 47.5174 50.0914C47.9882 49.882 48.4699 49.6971 48.9603 49.5374H51.6323C51.6323 49.5374 52.2068 49.7484 53.0619 50.1969Z" fill="#E8AA87"/>
<path d="M55.6287 44.8403C55.6287 44.8403 58.2206 43.7059 57.272 38.2447C56.3234 32.7835 53.932 33.2716 52.783 34.1686C51.634 35.0656 46.5304 34.406 44.5264 36.2528C42.5224 38.0996 42.4289 45.7769 44.9406 46.0276C47.4523 46.2782 55.6287 44.8403 55.6287 44.8403Z" fill="#494949"/>
<path d="M56.4843 43.904C56.5685 45.556 55.9905 47.1743 54.8753 48.4087C53.7601 49.6431 52.1975 50.3943 50.5257 50.4997C49.2509 50.4798 48.0148 50.0638 46.9931 49.3107C45.9714 48.5577 45.216 47.5059 44.8342 46.3048C44.5713 45.5624 44.4314 44.7828 44.4201 43.9963C44.3756 42.6757 44.7339 41.3723 45.4485 40.255C46.1632 39.1378 47.2012 38.2583 48.4281 37.7305C49.0586 37.5095 49.7231 37.3979 50.3921 37.4007C52.0708 37.4727 53.6527 38.1965 54.7937 39.4144C55.9346 40.6324 56.5423 42.2459 56.4843 43.904Z" fill="#F4C9AD"/>
<path d="M48.7473 47.373L52.7553 47.2411C52.7884 47.2379 52.8217 47.2434 52.8519 47.2571C52.8821 47.2708 52.908 47.2921 52.9271 47.319C52.9461 47.3459 52.9576 47.3773 52.9603 47.4099C52.963 47.4426 52.9568 47.4754 52.9424 47.505C52.7684 47.9312 52.4721 48.298 52.0901 48.5604C51.708 48.8229 51.2567 48.9695 50.7914 48.9824C50.3308 49.0263 49.8682 48.9215 49.4731 48.6836C49.078 48.4457 48.7717 48.0877 48.6003 47.6633C48.5811 47.636 48.5696 47.6042 48.5672 47.571C48.5648 47.5379 48.5714 47.5047 48.5865 47.475C48.6015 47.4453 48.6244 47.4202 48.6527 47.4022C48.681 47.3843 48.7137 47.3742 48.7473 47.373Z" fill="white"/>
<path d="M44.8342 46.3447C44.5713 45.6023 44.4314 44.8228 44.4201 44.0363C44.3756 42.7156 44.7339 41.4122 45.4485 40.295C46.1632 39.1777 47.2012 38.2982 48.4281 37.7704H50.3787C51.24 38.4155 52.0609 39.1116 52.837 39.8546C52.837 39.8546 44.4602 39.9997 44.8342 46.3447Z" fill="#E8AA87"/>
<path d="M44.2451 42.8623C45.2231 41.8223 46.3534 40.933 47.5985 40.224C50.0434 38.9049 55.4677 40.5802 56.4697 42.2291C57.4717 43.878 56.6166 37.7836 56.6166 37.7836C56.6166 37.7836 55.5612 36.2666 55.1337 36.2666C54.7061 36.2666 51.66 36.016 51.66 36.016L48.0928 36.1347C48.0928 36.1347 46.3293 36.8998 46.2491 36.9526C46.169 37.0053 44.3787 40.224 44.3787 40.224L44.2451 42.8623Z" fill="#494949"/>
<path d="M72.7021 99.7421L70.5111 95.3889C70.4596 95.2891 70.3812 95.2053 70.2846 95.1468C70.1879 95.0882 70.0767 95.0573 69.9633 95.0573C69.8499 95.0573 69.7387 95.0882 69.642 95.1468C69.5453 95.2053 69.4669 95.2891 69.4155 95.3889L67.2512 99.7553C67.2073 99.8444 67.1415 99.9213 67.0599 99.9789C66.9782 100.036 66.8832 100.073 66.7836 100.085L61.9205 100.797C61.806 100.814 61.6986 100.861 61.6104 100.935C61.5223 101.009 61.457 101.106 61.4221 101.215C61.3873 101.324 61.3842 101.44 61.4132 101.551C61.4423 101.661 61.5023 101.761 61.5865 101.839L65.0868 105.216C65.1579 105.286 65.2117 105.372 65.2442 105.465C65.2766 105.559 65.2868 105.659 65.2739 105.757L64.4589 110.546C64.4405 110.657 64.4541 110.772 64.498 110.876C64.5419 110.98 64.6145 111.071 64.7076 111.136C64.8006 111.202 64.9105 111.241 65.0247 111.249C65.1389 111.256 65.253 111.232 65.354 111.179L69.6961 108.91C69.7849 108.865 69.8834 108.841 69.9833 108.841C70.0833 108.841 70.1817 108.865 70.2706 108.91L74.626 111.166C74.7281 111.22 74.8438 111.245 74.9595 111.237C75.0752 111.229 75.1863 111.189 75.2799 111.121C75.3735 111.054 75.4459 110.961 75.4885 110.855C75.5312 110.748 75.5425 110.632 75.5211 110.519L74.6661 105.731C74.6526 105.636 74.6612 105.539 74.6913 105.447C74.7214 105.356 74.7721 105.272 74.8398 105.203L78.447 101.774C78.5272 101.695 78.5838 101.596 78.6106 101.487C78.6374 101.378 78.6333 101.265 78.5987 101.158C78.5642 101.052 78.5006 100.957 78.4148 100.884C78.3291 100.811 78.2247 100.763 78.113 100.745L73.2365 100.072C73.1271 100.063 73.0214 100.029 72.9284 99.9716C72.8354 99.9142 72.7577 99.8355 72.7021 99.7421Z" fill="white"/>
<path d="M92.5562 99.7429L90.3651 95.3897C90.3116 95.2904 90.2317 95.2073 90.1341 95.1494C90.0364 95.0914 89.9246 95.0608 89.8106 95.0608C89.6967 95.0608 89.5849 95.0914 89.4872 95.1494C89.3895 95.2073 89.3097 95.2904 89.2562 95.3897L87.0918 99.7561C87.0523 99.8457 86.9895 99.9235 86.9097 99.9814C86.8299 100.039 86.7361 100.075 86.6376 100.086L81.7745 100.798C81.6617 100.817 81.5563 100.866 81.4695 100.939C81.3828 101.013 81.3181 101.109 81.2823 101.216C81.2466 101.323 81.2412 101.438 81.2667 101.548C81.2922 101.658 81.3477 101.759 81.4271 101.84L84.9676 105.217C85.0387 105.287 85.0925 105.372 85.1249 105.466C85.1574 105.56 85.1675 105.66 85.1546 105.758L84.3397 110.547C84.3176 110.658 84.3282 110.772 84.37 110.878C84.4119 110.983 84.4834 111.074 84.576 111.141C84.6687 111.207 84.7786 111.246 84.893 111.253C85.0073 111.26 85.1213 111.235 85.2214 111.18L89.5768 108.911C89.6657 108.866 89.7642 108.842 89.8641 108.842C89.964 108.842 90.0625 108.866 90.1513 108.911L94.48 111.153C94.5826 111.202 94.6967 111.223 94.8102 111.213C94.9237 111.203 95.0323 111.162 95.1243 111.096C95.2163 111.029 95.2882 110.939 95.3324 110.836C95.3766 110.732 95.3914 110.618 95.3751 110.507L94.5201 105.719C94.4995 105.623 94.5047 105.524 94.5352 105.432C94.5657 105.339 94.6204 105.256 94.6938 105.191L98.2075 101.774C98.288 101.695 98.3444 101.594 98.3705 101.485C98.3966 101.375 98.3913 101.261 98.3553 101.154C98.3192 101.047 98.2538 100.953 98.1664 100.88C98.079 100.808 97.9729 100.762 97.8601 100.745L92.997 100.073C92.9043 100.051 92.8171 100.011 92.7412 99.9539C92.6652 99.8971 92.6022 99.8252 92.5562 99.7429Z" fill="white"/>
<path d="M112.41 99.7421L110.206 95.3889C110.154 95.2891 110.076 95.2053 109.979 95.1468C109.883 95.0882 109.772 95.0573 109.658 95.0573C109.545 95.0573 109.433 95.0882 109.337 95.1468C109.24 95.2053 109.162 95.2891 109.11 95.3889L106.946 99.7553C106.906 99.8449 106.844 99.9226 106.764 99.9806C106.684 100.038 106.59 100.075 106.492 100.085L101.615 100.797C101.504 100.818 101.4 100.868 101.315 100.943C101.23 101.017 101.167 101.113 101.132 101.22C101.098 101.327 101.094 101.441 101.12 101.55C101.146 101.659 101.202 101.759 101.281 101.839L104.822 105.216C104.894 105.285 104.948 105.371 104.978 105.465C105.009 105.56 105.014 105.66 104.995 105.757L104.18 110.546C104.162 110.657 104.176 110.772 104.22 110.876C104.263 110.98 104.336 111.071 104.429 111.136C104.522 111.202 104.632 111.241 104.746 111.249C104.86 111.256 104.974 111.232 105.076 111.179L109.418 108.91C109.506 108.865 109.605 108.841 109.705 108.841C109.805 108.841 109.903 108.865 109.992 108.91L114.361 111.166C114.463 111.216 114.577 111.238 114.69 111.228C114.804 111.219 114.912 111.178 115.004 111.111C115.095 111.044 115.166 110.953 115.208 110.849C115.25 110.744 115.262 110.63 115.243 110.519L114.401 105.731C114.38 105.636 114.386 105.537 114.416 105.444C114.447 105.351 114.501 105.268 114.575 105.203L118.088 101.787C118.169 101.707 118.225 101.607 118.251 101.497C118.277 101.388 118.272 101.273 118.236 101.166C118.2 101.06 118.135 100.965 118.047 100.893C117.96 100.821 117.854 100.774 117.741 100.758L112.865 100.085C112.767 100.067 112.675 100.027 112.596 99.9676C112.517 99.9079 112.453 99.8307 112.41 99.7421Z" fill="white"/>
<path d="M132.249 99.7421L130.058 95.3889C130.006 95.2891 129.928 95.2053 129.831 95.1468C129.735 95.0882 129.624 95.0573 129.51 95.0573C129.397 95.0573 129.286 95.0882 129.189 95.1468C129.092 95.2053 129.014 95.2891 128.962 95.3889L126.798 99.7553C126.754 99.8444 126.688 99.9213 126.607 99.9789C126.525 100.036 126.43 100.073 126.33 100.085L121.467 100.797C121.353 100.814 121.245 100.861 121.157 100.935C121.069 101.009 121.004 101.106 120.969 101.215C120.934 101.324 120.931 101.44 120.96 101.551C120.989 101.661 121.049 101.761 121.133 101.839L124.674 105.216C124.741 105.289 124.791 105.375 124.821 105.468C124.851 105.561 124.86 105.66 124.847 105.757L124.032 110.546C124.014 110.657 124.028 110.772 124.072 110.876C124.115 110.98 124.188 111.071 124.281 111.136C124.374 111.202 124.484 111.241 124.598 111.249C124.712 111.256 124.827 111.232 124.928 111.179L129.216 108.91C129.305 108.865 129.404 108.841 129.503 108.841C129.603 108.841 129.702 108.865 129.791 108.91L134.159 111.166C134.261 111.216 134.375 111.238 134.489 111.228C134.602 111.219 134.711 111.178 134.802 111.111C134.894 111.044 134.964 110.953 135.007 110.849C135.049 110.744 135.061 110.63 135.041 110.519L134.2 105.731C134.179 105.636 134.184 105.537 134.215 105.444C134.245 105.351 134.3 105.268 134.373 105.203L137.874 101.787C137.954 101.708 138.01 101.609 138.037 101.5C138.064 101.392 138.06 101.278 138.025 101.171C137.991 101.065 137.927 100.97 137.841 100.897C137.756 100.824 137.651 100.776 137.54 100.758L132.663 100.085C132.574 100.059 132.491 100.015 132.42 99.9558C132.349 99.8969 132.291 99.8241 132.249 99.7421Z" fill="white"/>
<path d="M152.103 99.7429L149.912 95.3897C149.858 95.2904 149.778 95.2073 149.681 95.1494C149.583 95.0914 149.471 95.0608 149.357 95.0608C149.243 95.0608 149.132 95.0914 149.034 95.1494C148.936 95.2073 148.856 95.2904 148.803 95.3897L146.652 99.7561C146.608 99.8452 146.542 99.9221 146.461 99.9797C146.379 100.037 146.284 100.074 146.184 100.086L141.321 100.798C141.207 100.814 141.099 100.862 141.011 100.936C140.923 101.01 140.858 101.107 140.823 101.216C140.788 101.325 140.785 101.441 140.814 101.551C140.843 101.662 140.903 101.762 140.987 101.84L144.514 105.217C144.585 105.287 144.639 105.372 144.672 105.466C144.704 105.56 144.714 105.66 144.701 105.758L143.913 110.547C143.891 110.658 143.902 110.772 143.943 110.878C143.985 110.983 144.057 111.074 144.149 111.141C144.242 111.207 144.352 111.246 144.466 111.253C144.581 111.26 144.695 111.235 144.795 111.18L149.15 108.911C149.239 108.866 149.338 108.842 149.437 108.842C149.537 108.842 149.636 108.866 149.725 108.911L154.08 111.167C154.183 111.216 154.297 111.236 154.41 111.226C154.524 111.216 154.632 111.175 154.724 111.109C154.816 111.043 154.888 110.953 154.933 110.849C154.977 110.745 154.991 110.632 154.975 110.52L154.12 105.732C154.107 105.637 154.115 105.54 154.145 105.448C154.175 105.357 154.226 105.273 154.294 105.204L157.808 101.788C157.888 101.708 157.944 101.608 157.971 101.498C157.997 101.389 157.991 101.274 157.955 101.167C157.919 101.061 157.854 100.966 157.767 100.894C157.679 100.821 157.573 100.775 157.46 100.759L152.597 100.086C152.494 100.07 152.395 100.031 152.309 99.9714C152.224 99.9119 152.153 99.8337 152.103 99.7429Z" fill="white"/>
<path d="M100.559 17.851C104.263 17.851 107.265 14.8862 107.265 11.229C107.265 7.57172 104.263 4.60693 100.559 4.60693C96.8545 4.60693 93.8518 7.57172 93.8518 11.229C93.8518 14.8862 96.8545 17.851 100.559 17.851Z" fill="#86B96E"/>
<path d="M35.4543 99.7292C38.0738 99.7292 40.1972 97.6326 40.1972 95.0463C40.1972 92.46 38.0738 90.3634 35.4543 90.3634C32.8349 90.3634 30.7115 92.46 30.7115 95.0463C30.7115 97.6326 32.8349 99.7292 35.4543 99.7292Z" fill="#EAB65A"/>
<path d="M91.4741 172.704C92.9941 172.704 94.2263 171.488 94.2263 169.987C94.2263 168.486 92.9941 167.269 91.4741 167.269C89.9541 167.269 88.7219 168.486 88.7219 169.987C88.7219 171.488 89.9541 172.704 91.4741 172.704Z" fill="#EAB65A"/>
<path d="M192.476 111.616C193.996 111.616 195.229 110.399 195.229 108.898C195.229 107.397 193.996 106.181 192.476 106.181C190.956 106.181 189.724 107.397 189.724 108.898C189.724 110.399 190.956 111.616 192.476 111.616Z" fill="#494949"/>
</svg>
