<svg width="34" height="24" viewBox="0 0 34 24" fill="none" xmlns="http://www.w3.org/2000/svg">
<path d="M16.8587 10.8073C17.8971 10.8073 18.9121 10.4985 19.7754 9.91978C20.6388 9.34109 21.3117 8.51858 21.709 7.55627C22.1063 6.59396 22.2102 5.53507 22.0076 4.51353C21.8049 3.49198 21.3048 2.55366 20.5705 1.81723C19.8362 1.0808 18.9007 0.579338 17.8822 0.376266C16.8638 0.173194 15.8082 0.277632 14.8489 0.676371C13.8897 1.07511 13.0699 1.75024 12.4931 2.61638C11.9164 3.48252 11.6087 4.50077 11.6089 5.54234C11.6106 6.93837 12.1643 8.27672 13.1484 9.26377C14.1326 10.2508 15.467 10.8059 16.8587 10.8073ZM16.8587 2.40785C17.4767 2.40785 18.0809 2.59169 18.5948 2.93611C19.1086 3.28053 19.5091 3.77007 19.7456 4.34283C19.9822 4.91558 20.044 5.54582 19.9235 6.15385C19.8029 6.76188 19.5053 7.32039 19.0683 7.75876C18.6313 8.19713 18.0745 8.49566 17.4683 8.6166C16.8622 8.73755 16.2339 8.67547 15.6629 8.43823C15.0919 8.20099 14.6039 7.79923 14.2605 7.28377C13.9172 6.76831 13.7339 6.16229 13.7339 5.54234C13.735 4.71137 14.0646 3.91476 14.6504 3.32717C15.2361 2.73958 16.0303 2.40898 16.8587 2.40785Z" fill="white"/>
<path d="M6.94131 13.9024C7.73985 13.9024 8.52046 13.6649 9.18442 13.2199C9.84839 12.7749 10.3659 12.1423 10.6715 11.4023C10.9771 10.6623 11.057 9.84794 10.9012 9.06232C10.7454 8.27669 10.3609 7.55505 9.79625 6.98865C9.2316 6.42225 8.51218 6.03652 7.72899 5.88025C6.94579 5.72398 6.13398 5.80418 5.39622 6.11072C4.65847 6.41725 4.0279 6.93635 3.58425 7.60237C3.1406 8.26839 2.90381 9.05142 2.90381 9.85243C2.90381 10.9266 3.32919 11.9567 4.08636 12.7162C4.84354 13.4757 5.8705 13.9024 6.94131 13.9024ZM6.94131 7.93401C7.31957 7.93401 7.68933 8.04652 8.00384 8.25732C8.31835 8.46812 8.56348 8.76774 8.70823 9.11828C8.85298 9.46883 8.89085 9.85456 8.81706 10.2267C8.74327 10.5988 8.56112 10.9407 8.29365 11.209C8.02618 11.4773 7.68541 11.66 7.31442 11.734C6.94343 11.808 6.55889 11.77 6.20943 11.6248C5.85996 11.4796 5.56127 11.2337 5.35112 10.9182C5.14097 10.6028 5.02881 10.2319 5.02881 9.85243C5.02881 9.34363 5.2303 8.85568 5.58897 8.4959C5.94763 8.13613 6.43408 7.93401 6.94131 7.93401Z" fill="white"/>
<path d="M26.7751 13.9024C27.5736 13.9024 28.3542 13.6649 29.0182 13.2199C29.6821 12.7749 30.1996 12.1423 30.5052 11.4023C30.8108 10.6623 30.8908 9.84794 30.735 9.06232C30.5792 8.27669 30.1946 7.55505 29.63 6.98865C29.0653 6.42225 28.3459 6.03652 27.5627 5.88025C26.7795 5.72398 25.9677 5.80418 25.23 6.11072C24.4922 6.41725 23.8616 6.93635 23.418 7.60237C22.9743 8.26839 22.7375 9.05142 22.7375 9.85243C22.7375 10.9266 23.1629 11.9567 23.9201 12.7162C24.6773 13.4757 25.7042 13.9024 26.7751 13.9024ZM26.7751 7.93401C27.1533 7.93401 27.5231 8.04652 27.8376 8.25732C28.1521 8.46812 28.3972 8.76774 28.542 9.11828C28.6867 9.46883 28.7246 9.85456 28.6508 10.2267C28.577 10.5988 28.3949 10.9407 28.1274 11.209C27.8599 11.4773 27.5191 11.66 27.1482 11.734C26.7772 11.808 26.3926 11.77 26.0432 11.6248C25.6937 11.4796 25.395 11.2337 25.1849 10.9182C24.9747 10.6028 24.8625 10.2319 24.8625 9.85243C24.8625 9.34363 25.064 8.85568 25.4227 8.4959C25.7814 8.13613 26.2678 7.93401 26.7751 7.93401Z" fill="white"/>
<path d="M26.9164 16.0404C25.985 16.0466 25.0698 16.2858 24.2538 16.7363C23.478 15.5044 22.4088 14.4855 21.1424 13.7716C19.8761 13.0577 18.4525 12.6712 17.0001 12.6469C15.5477 12.6712 14.1241 13.0577 12.8578 13.7716C11.5914 14.4855 10.5222 15.5044 9.74641 16.7363C8.93041 16.2858 8.01523 16.0466 7.08379 16.0404C5.41236 16.1222 3.84109 16.864 2.71298 18.1038C1.58488 19.3436 0.991575 20.9808 1.0626 22.6579C1.0626 22.9405 1.17454 23.2116 1.3738 23.4115C1.57306 23.6114 1.84331 23.7237 2.1251 23.7237C2.40689 23.7237 2.67714 23.6114 2.8764 23.4115C3.07566 23.2116 3.1876 22.9405 3.1876 22.6579C3.11796 21.5463 3.48793 20.452 4.21728 19.6123C4.94663 18.7725 5.97657 18.255 7.08379 18.172C7.67094 18.1765 8.24739 18.3301 8.75935 18.6185C8.25861 19.8844 8.00224 21.2342 8.00391 22.5961C8.00391 22.8787 8.11585 23.1498 8.31511 23.3497C8.51437 23.5496 8.78462 23.6618 9.06641 23.6618C9.3482 23.6618 9.61846 23.5496 9.81771 23.3497C10.017 23.1498 10.1289 22.8787 10.1289 22.5961C10.1289 18.2849 13.2102 14.7785 17.0001 14.7785C20.79 14.7785 23.8713 18.2849 23.8713 22.5961C23.8713 22.8787 23.9832 23.1498 24.1825 23.3497C24.3817 23.5496 24.652 23.6618 24.9338 23.6618C25.2156 23.6618 25.4858 23.5496 25.6851 23.3497C25.8843 23.1498 25.9963 22.8787 25.9963 22.5961C25.998 21.2342 25.7416 19.8844 25.2409 18.6185C25.7528 18.3301 26.3293 18.1765 26.9164 18.172C28.0236 18.255 29.0536 18.7725 29.7829 19.6123C30.5123 20.452 30.8822 21.5463 30.8126 22.6579C30.8126 22.9405 30.9245 23.2116 31.1238 23.4115C31.3231 23.6114 31.5933 23.7237 31.8751 23.7237C32.1569 23.7237 32.4271 23.6114 32.6264 23.4115C32.8257 23.2116 32.9376 22.9405 32.9376 22.6579C33.0086 20.9808 32.4153 19.3436 31.2872 18.1038C30.1591 16.864 28.5878 16.1222 26.9164 16.0404Z" fill="white"/>
</svg>
