<svg width="20" height="20" viewBox="0 0 20 20" fill="none" xmlns="http://www.w3.org/2000/svg">
<g clip-path="url(#clip0_4885_56768)">
<path d="M9.99929 0C4.48489 -4.28572e-06 -0.000739565 4.48561 -0.000732422 10C-0.000725279 15.5144 4.4849 20.0001 9.99929 20.0001C10.0209 20.0001 10.0419 19.9972 10.0634 19.9972C10.4579 19.9972 10.7777 19.6774 10.7777 19.2829C10.7777 18.8884 10.4579 18.5686 10.0634 18.5686C10.0424 18.5708 10.0197 18.5715 9.99929 18.5715C9.7571 18.5715 9.47726 18.4503 9.13713 18.0762C8.79699 17.7022 8.44233 17.0934 8.14103 16.31C7.84646 15.5441 7.60192 14.6129 7.42814 13.5715H10.3537C10.7476 13.5707 11.0665 13.2511 11.0665 12.8572C11.0665 12.4632 10.7476 12.1437 10.3537 12.1429H7.25236C7.18679 11.4539 7.14214 10.7431 7.14214 10C7.14214 9.25645 7.18671 8.54636 7.25236 7.85716H12.7462C12.8119 8.54636 12.8564 9.25645 12.8564 10C12.8564 10.1179 12.856 10.2242 12.8536 10.3404C12.8536 10.7349 13.1748 11.0547 13.5693 11.0547C13.9637 11.0547 14.2835 10.7349 14.2836 10.3404C14.2828 10.2244 14.2842 10.1003 14.285 10C14.285 9.26275 14.2506 8.54801 14.1901 7.85716H18.2903C18.4665 8.54308 18.5707 9.25826 18.5707 10C18.5707 10.1145 18.5686 10.2272 18.5636 10.3404C18.5636 10.7349 18.8848 11.0547 19.2792 11.0547C19.6737 11.0547 19.9935 10.7349 19.9935 10.3404C19.9971 10.2265 19.9992 10.1149 19.9992 10C19.9993 4.48561 15.5137 -5.71429e-06 9.99929 0ZM9.99929 1.42858C10.2415 1.42857 10.5213 1.55117 10.8615 1.92523C11.2016 2.29928 11.5563 2.90803 11.8576 3.69141C12.152 4.45696 12.3967 5.38805 12.5704 6.42859H7.42814C7.6019 5.38805 7.84659 4.45696 8.14103 3.69141C8.44233 2.90803 8.79699 2.29928 9.13713 1.92523C9.47726 1.55117 9.7571 1.42857 9.99929 1.42858ZM7.46859 1.80804C7.22312 2.21537 7.00273 2.66996 6.80732 3.17802C6.44706 4.11472 6.16611 5.21651 5.97864 6.42859H2.21189C3.22029 4.22834 5.12501 2.52872 7.46859 1.80804ZM12.5286 1.80804C14.8728 2.52849 16.7781 4.22793 17.7867 6.42859H14.0186C13.8311 5.21653 13.5515 4.11471 13.1913 3.17802C12.9958 2.66976 12.7742 2.21548 12.5286 1.80804ZM1.70686 7.85716H5.80844C5.74794 8.54802 5.71357 9.26274 5.71357 10C5.71357 10.7368 5.748 11.4523 5.80844 12.1429H1.70686C1.5308 11.4572 1.42784 10.7415 1.42784 10C1.42784 9.25832 1.53069 8.54303 1.70686 7.85716ZM2.21189 13.5715H5.97864C6.16611 14.7844 6.44692 15.8864 6.80732 16.8234C7.00246 17.3308 7.22214 17.7865 7.4672 18.1934C5.12408 17.4725 3.22006 15.7715 2.21189 13.5715Z" fill="#494949"/>
<circle cx="15.6523" cy="15.6522" r="3.84783" stroke="#494949"/>
<rect x="18.0752" y="12.2711" width="1.14416" height="8.02706" transform="rotate(43.7143 18.0752 12.2711)" fill="#494949"/>
</g>
<defs>
<clipPath id="clip0_4885_56768">
<rect width="20" height="20" fill="white"/>
</clipPath>
</defs>
</svg>
