<svg width="12" height="12" viewBox="0 0 12 12" fill="none" xmlns="http://www.w3.org/2000/svg">
<path d="M8.40002 9.6499H1.90002C1.20002 9.6499 0.650024 9.0999 0.650024 8.3999V1.8999C0.650024 1.1999 1.20002 0.649902 1.90002 0.649902H8.40002C9.10002 0.649902 9.65002 1.1999 9.65002 1.8999V8.3999C9.65002 9.0499 9.05002 9.6499 8.40002 9.6499ZM1.90002 1.6499C1.75002 1.6499 1.65002 1.7499 1.65002 1.8999V8.3999C1.65002 8.5499 1.75002 8.6499 1.90002 8.6499H8.40002C8.55002 8.6499 8.65002 8.5499 8.65002 8.3999V1.8999C8.65002 1.7499 8.55002 1.6499 8.40002 1.6499H1.90002Z" fill="#A4A4A4"/>
<path d="M10.4 11.3999H3.15002C2.85002 11.3999 2.65002 11.1999 2.65002 10.8999C2.65002 10.5999 2.85002 10.3999 3.15002 10.3999H10.4V3.1499C10.4 2.8499 10.6 2.6499 10.9 2.6499C11.2 2.6499 11.4 2.8499 11.4 3.1499V10.3999C11.4 10.9499 10.95 11.3999 10.4 11.3999Z" fill="#A4A4A4"/>
</svg>
