<svg width="24" height="25" viewBox="0 0 24 25" fill="none" xmlns="http://www.w3.org/2000/svg">
<path d="M6.1128 20.4619C7.9598 21.8978 10.2676 22.6097 12.6025 22.4641C14.9374 22.3184 17.1388 21.3252 18.793 19.6709C20.4473 18.0167 21.4405 15.8153 21.5862 13.4804C21.7318 11.1455 21.0198 8.83773 19.584 6.99073L6.1128 20.4619ZM4.416 18.7651L17.8872 5.29393C16.0402 3.85809 13.7324 3.14612 11.3975 3.29177C9.06261 3.43742 6.86124 4.43068 5.20699 6.08492C3.55275 7.73917 2.5595 9.94054 2.41384 12.2755C2.26819 14.6104 2.98016 16.9181 4.416 18.7651ZM12 24.8779C5.3724 24.8779 0 19.5055 0 12.8779C0 6.25033 5.3724 0.87793 12 0.87793C18.6276 0.87793 24 6.25033 24 12.8779C24 19.5055 18.6276 24.8779 12 24.8779Z" fill="white"/>
</svg>
